<svg xmlns="http://www.w3.org/2000/svg" viewBox="0 0 220 64" role="img" aria-label="Atlas TX">
  <title>Atlas TX</title>
  <defs>
    <radialGradient id="logo-halo" cx="50%" cy="46%" r="55%">
      <stop offset="0%" stop-color="#22d3ee" stop-opacity="0.35"/>
      <stop offset="100%" stop-color="#22d3ee" stop-opacity="0"/>
    </radialGradient>
  </defs>

  <g transform="translate(0,0)">
    <circle cx="32" cy="30" r="26" fill="url(#logo-halo)"/>
    <circle cx="58" cy="14" r="0.9" fill="#22d3ee"/>
    <circle cx="55" cy="22" r="0.6" fill="#22d3ee" fill-opacity="0.7"/>
    <circle cx="8"  cy="50" r="0.9" fill="#22d3ee"/>
    <circle cx="6"  cy="42" r="0.6" fill="#22d3ee" fill-opacity="0.7"/>
    <circle cx="50" cy="56" r="0.6" fill="#22d3ee" fill-opacity="0.7"/>

    <path
      d="M22 10 L34 10 L34 22 L52 22 L54 28 L54 36 L50 42 L44 46 L40 52 L26 38 L14 30 L12 24 L22 22 Z"
      fill="#0f172a"
      stroke="#22d3ee"
      stroke-width="1.6"
      stroke-linejoin="round"
    />
    <path
      d="M30 24 L31.8 29.53 L37.61 29.53 L32.91 32.95 L34.7 38.47 L30 35.06 L25.3 38.47 L27.09 32.95 L22.39 29.53 L28.2 29.53 Z"
      fill="#22d3ee"
      stroke="#0f172a"
      stroke-width="0.4"
      stroke-linejoin="round"
    />
  </g>

  <g transform="translate(74,0)" font-family="ui-sans-serif, system-ui, -apple-system, Segoe UI, Roboto, sans-serif">
    <text x="0" y="32" font-size="22" font-weight="600" letter-spacing="-0.5" fill="#f8fafc">ATLAS</text>
    <text x="0" y="50" font-size="11" font-weight="500" letter-spacing="3" fill="#22d3ee">TEXAS</text>
  </g>
</svg>
