<svg xmlns="http://www.w3.org/2000/svg" viewBox="0 0 220 64" role="img" aria-label="Atlas TX">
  <title>Atlas TX</title>
  <defs>
    <radialGradient id="logo-halo" cx="50%" cy="50%" r="55%">
      <stop offset="0%" stop-color="#22d3ee" stop-opacity="0.35"/>
      <stop offset="100%" stop-color="#22d3ee" stop-opacity="0"/>
    </radialGradient>
  </defs>

  <g transform="translate(0,0)">
    <circle cx="29" cy="32" r="29" fill="url(#logo-halo)"/>
    <circle cx="56" cy="10" r="0.9" fill="#22d3ee"/>
    <circle cx="58" cy="18" r="0.6" fill="#22d3ee" fill-opacity="0.7"/>
    <circle cx="6"  cy="52" r="0.9" fill="#22d3ee"/>

    <path
      d="M 18 7
         L 29 7
         L 29 17
         L 33 16
         L 39 17
         L 44 16
         L 49 17
         L 51 22
         L 53 28
         L 52 34
         L 51 40
         L 49 45
         L 46 49
         L 42 52
         L 38 55
         L 38 57
         L 35 54
         L 31 49
         L 27 43
         L 25 40
         L 18 42
         L 13 39
         L 8 33
         L 5 29
         L 5 28
         L 18 28
         L 18 17
         Z"
      fill="#0f172a"
      stroke="#22d3ee"
      stroke-width="1.6"
      stroke-linejoin="round"
      stroke-linecap="round"
    />
    <path
      d="M 37 31
         L 38.4 35.3
         L 42.9 35.3
         L 39.25 37.95
         L 40.65 42.25
         L 37 39.6
         L 33.35 42.25
         L 34.75 37.95
         L 31.1 35.3
         L 35.6 35.3
         Z"
      fill="#22d3ee"
      stroke="#0f172a"
      stroke-width="0.4"
      stroke-linejoin="round"
    />
  </g>

  <g transform="translate(74,0)" font-family="ui-sans-serif, system-ui, -apple-system, Segoe UI, Roboto, sans-serif">
    <text x="0" y="32" font-size="22" font-weight="600" letter-spacing="-0.5" fill="#f8fafc">ATLAS</text>
    <text x="0" y="50" font-size="11" font-weight="500" letter-spacing="3" fill="#22d3ee">TEXAS</text>
  </g>
</svg>
